<svg width="114" height="24" viewBox="0 0 114 24" fill="none" xmlns="http://www.w3.org/2000/svg">
<path d="M94.1779 13.3451C91.0329 13.3445 88.4892 10.9486 88.4892 7.67301C88.4892 4.39662 91.0329 2.0015 94.1779 2.00094C97.3228 2.0015 99.8664 4.39662 99.8664 7.67301C99.8664 10.9486 97.3228 13.3445 94.1779 13.3451ZM94.1779 0C89.941 0.00111272 86.5055 3.43579 86.5055 7.67301C86.5055 13.4436 91.0796 15.8874 94.1779 21.5158C97.2757 15.8874 101.85 13.4436 101.85 7.67301C101.85 3.43579 98.4143 0.00111272 94.1779 0Z" fill="#D31245"/>
<path d="M3.13288 11.7982H1.40677V2.88447H3.06723C4.6317 2.88447 8.27112 3.31843 8.27112 7.3384C8.27112 11.2187 5.05175 11.7982 3.13288 11.7982ZM3.06723 1.77454H0.851808C0.545811 1.77454 0.297119 2.02295 0.297119 2.32951V12.3531C0.297119 12.6594 0.549983 12.9078 0.856537 12.9078H3.13288C7.04519 12.9078 9.38106 10.8259 9.38106 7.3384C9.38106 3.23637 6.11941 1.77454 3.06723 1.77454Z" fill="#807F83"/>
<path d="M18.795 11.6463H13.1046V9.12736H17.7819C18.0884 9.12736 18.3368 8.87894 18.3368 8.57267C18.3368 8.26612 18.0884 8.0177 17.7819 8.0177H13.1046V3.0561H18.5727C18.8793 3.0561 19.1277 2.80769 19.1277 2.50113C19.1277 2.19458 18.8793 1.94617 18.5727 1.94617H12.5496C12.243 1.94617 11.9946 2.19458 11.9946 2.50113V12.2012C11.9946 12.5075 12.243 12.7562 12.5496 12.7562H18.795C19.1015 12.7562 19.35 12.5075 19.35 12.2012C19.35 11.8947 19.1015 11.6463 18.795 11.6463Z" fill="#807F83"/>
<path d="M25.8505 6.74834C24.4101 6.1255 23.5272 5.68236 23.5272 4.47979C23.5272 3.35039 24.2794 2.56119 25.3559 2.56119C27.1037 2.56119 27.3118 3.66584 27.3301 3.7977C27.3671 4.09897 27.6395 4.31539 27.9419 4.28257C28.2465 4.24918 28.4662 3.9749 28.4326 3.67029C28.3483 2.90308 27.5966 1.45154 25.3559 1.45154C23.6535 1.45154 22.4172 2.72532 22.4172 4.47979C22.4172 6.47239 24.0766 7.19037 25.4099 7.76704C26.8358 8.38376 27.7099 8.82161 27.7099 9.99692C27.7099 10.9271 27.0637 12.0137 25.2416 12.0137C23.437 12.0137 22.711 10.2907 22.6818 10.2195C22.568 9.93488 22.245 9.79691 21.9605 9.91013C21.6759 10.0239 21.5373 10.3469 21.6511 10.6314C21.692 10.7333 22.6768 13.1237 25.2416 13.1237C27.7001 13.1237 28.8195 11.5027 28.8195 9.99692C28.8195 8.03297 27.1733 7.32056 25.8505 6.74834Z" fill="#807F83"/>
<path d="M38.94 1.85596H31.1626C30.8561 1.85596 30.6077 2.10437 30.6077 2.41093C30.6077 2.7172 30.8561 2.96589 31.1626 2.96589H34.4963V12.2012C34.4963 12.5077 34.7447 12.7561 35.0513 12.7561C35.3579 12.7561 35.6063 12.5077 35.6063 12.2012V2.96589H38.94C39.2465 2.96589 39.4949 2.7172 39.4949 2.41093C39.4949 2.10437 39.2465 1.85596 38.94 1.85596Z" fill="#807F83"/>
<path d="M42.8283 1.85596C42.5217 1.85596 42.2733 2.10437 42.2733 2.41093V12.2012C42.2733 12.5077 42.5217 12.7561 42.8283 12.7561C43.1348 12.7561 43.3833 12.5077 43.3833 12.2012V2.41093C43.3833 2.10437 43.1348 1.85596 42.8283 1.85596Z" fill="#807F83"/>
<path d="M78.2537 1.85596H70.4764C70.1701 1.85596 69.9214 2.10437 69.9214 2.41093C69.9214 2.7172 70.1701 2.96589 70.4764 2.96589H73.8101V12.2012C73.8101 12.5077 74.0588 12.7561 74.365 12.7561C74.6716 12.7561 74.92 12.5077 74.92 12.2012V2.96589H78.2537C78.5605 2.96589 78.8087 2.7172 78.8087 2.41093C78.8087 2.10437 78.5605 1.85596 78.2537 1.85596Z" fill="#807F83"/>
<path d="M82.7843 1.85596C82.4778 1.85596 82.2294 2.10437 82.2294 2.41093V12.2012C82.2294 12.5077 82.4778 12.7561 82.7843 12.7561C83.0909 12.7561 83.3393 12.5077 83.3393 12.2012V2.41093C83.3393 2.10437 83.0909 1.85596 82.7843 1.85596Z" fill="#807F83"/>
<path d="M56.6628 1.85596C56.356 1.85596 56.1078 2.10437 56.1078 2.41093V10.7087L48.6346 2.04846C48.4832 1.87293 48.2387 1.81034 48.0212 1.89073C47.8036 1.97168 47.6595 2.17893 47.6595 2.41093V12.2012C47.6595 12.5077 47.908 12.7561 48.2145 12.7561C48.5211 12.7561 48.7695 12.5077 48.7695 12.2012V3.90335L56.2425 12.5636C56.3501 12.6882 56.5045 12.7561 56.6628 12.7561C56.7276 12.7561 56.7927 12.7447 56.8559 12.7214C57.0734 12.6404 57.2178 12.4332 57.2178 12.2012V2.41093C57.2178 2.10437 56.9691 1.85596 56.6628 1.85596Z" fill="#807F83"/>
<path d="M113.445 1.85596C113.138 1.85596 112.89 2.10437 112.89 2.41093V10.7087L105.417 2.04846C105.265 1.87293 105.021 1.81034 104.803 1.89073C104.586 1.97168 104.442 2.17893 104.442 2.41093V12.2012C104.442 12.5077 104.69 12.7561 104.997 12.7561C105.303 12.7561 105.552 12.5077 105.552 12.2012V3.90335L113.025 12.5636C113.132 12.6882 113.287 12.7561 113.445 12.7561C113.51 12.7561 113.575 12.7447 113.638 12.7214C113.856 12.6404 114 12.4332 114 12.2012V2.41093C114 2.10437 113.751 1.85596 113.445 1.85596Z" fill="#807F83"/>
<path d="M62.21 9.96154L64.9081 3.79515L67.6058 9.96154H62.21ZM65.4163 2.18838C65.3278 1.98643 65.1287 1.85596 64.9081 1.85596C64.6875 1.85596 64.488 1.98643 64.3996 2.18838L60.8505 10.3001C60.8505 10.3001 60.8503 10.3004 60.8503 10.3006L60.1159 11.9786C59.9935 12.2593 60.1214 12.5867 60.4021 12.7094C60.6834 12.8326 61.0099 12.7044 61.1332 12.4237L61.7246 11.0712H68.0913L68.683 12.4237C68.7742 12.6321 68.9778 12.7564 69.1917 12.7564C69.266 12.7564 69.3417 12.7411 69.414 12.7094C69.6947 12.5867 69.8227 12.2593 69.7 11.9786L65.4163 2.18838Z" fill="#807F83"/>
<path d="M5.39695 22.2646C5.24256 22.2646 5.11794 22.3887 5.11794 22.5431V23.0179C3.99131 22.9311 3.3515 22.3225 3.04495 21.9147C4.70234 21.7828 5.67541 20.9569 5.67541 19.6506C5.67541 17.7553 3.95765 17.3676 3.49727 17.3676H0.278457C0.124624 17.3676 0 17.4927 0 17.6466C0 17.8004 0.124624 17.925 0.278457 17.925H0.812839V23.0288H0.278457C0.124624 23.0288 0 23.1534 0 23.3072C0 23.4611 0.124624 23.5857 0.278457 23.5857H1.86241C2.01624 23.5857 2.14087 23.4611 2.14087 23.3072C2.14087 23.1534 2.01624 23.0288 1.86241 23.0288H1.37031V17.925H3.49727C3.51368 17.925 5.11794 18.0263 5.11794 19.6506C5.11794 20.763 4.20968 21.3758 2.56036 21.3758C2.46606 21.3758 2.37815 21.4231 2.32725 21.5016C2.27523 21.5809 2.26716 21.6804 2.30527 21.7661C2.33754 21.8404 3.12951 23.5857 5.39695 23.5857C5.55078 23.5857 5.67541 23.4611 5.67541 23.3072V22.5431C5.67541 22.3887 5.55078 22.2646 5.39695 22.2646Z" fill="#807F83"/>
<path d="M29.4163 22.2646C29.2624 22.2646 29.1378 22.3887 29.1378 22.5431V23.0288H25.7871V17.925H26.3187C26.4726 17.925 26.5966 17.8004 26.5966 17.6466C26.5966 17.4927 26.4726 17.3678 26.3187 17.3678H25.5117C25.5109 17.3678 25.5101 17.3676 25.5092 17.3676C25.5084 17.3676 25.5073 17.3678 25.5065 17.3678H24.7337C24.581 17.3678 24.4558 17.4927 24.4558 17.6466C24.4558 17.8004 24.581 17.925 24.7337 17.925H25.2302V23.0288H24.6958C24.5417 23.0288 24.4171 23.1534 24.4171 23.3072C24.4171 23.4611 24.5417 23.5857 24.6958 23.5857H29.4021C29.4046 23.5857 29.4068 23.584 29.4093 23.584C29.4115 23.584 29.4138 23.5857 29.4163 23.5857C29.5707 23.5857 29.6953 23.4611 29.6953 23.3072V22.5431C29.6953 22.3887 29.5707 22.2646 29.4163 22.2646Z" fill="#807F83"/>
<path d="M76.2619 17.3673C76.261 17.3673 76.2599 17.3679 76.2591 17.3679H73.4353C73.4345 17.3679 73.4334 17.3673 73.4325 17.3673C73.4317 17.3673 73.4306 17.3679 73.4297 17.3679H70.6059C70.6051 17.3679 70.604 17.3673 70.6034 17.3673C70.4499 17.3673 70.3247 17.4925 70.3247 17.6463V18.411C70.3247 18.5649 70.4499 18.6889 70.6034 18.6889C70.7573 18.6889 70.8825 18.5649 70.8825 18.411V17.9251H73.1535V23.0285H72.6403C72.4859 23.0285 72.3618 23.1532 72.3618 23.307C72.3618 23.4611 72.4859 23.5857 72.6403 23.5857H74.2242C74.3792 23.5857 74.5035 23.4611 74.5035 23.307C74.5035 23.1532 74.3792 23.0285 74.2242 23.0285H73.7107V17.9251H75.9823V18.411C75.9823 18.5649 76.1064 18.6889 76.2619 18.6889C76.4157 18.6889 76.5398 18.5649 76.5398 18.411V17.6463C76.5398 17.4925 76.4157 17.3673 76.2619 17.3673Z" fill="#807F83"/>
<path d="M61.0608 17.3673C61.06 17.3673 61.0589 17.3679 61.058 17.3679H58.2359C58.2351 17.3679 58.234 17.3673 58.2331 17.3673C58.2323 17.3673 58.2312 17.3679 58.2303 17.3679H55.4066C55.4057 17.3679 55.4046 17.3673 55.4038 17.3673C55.327 17.3673 55.2572 17.3987 55.2068 17.4491C55.1562 17.4994 55.1248 17.5695 55.1248 17.6463C55.1248 17.6474 55.1253 17.648 55.1253 17.6491V18.411C55.1253 18.5649 55.2499 18.6889 55.4038 18.6889C55.5584 18.6889 55.6831 18.5649 55.6831 18.411V17.9251H57.9541V23.0285H57.4403C57.2865 23.0285 57.1613 23.1532 57.1613 23.307C57.1613 23.4611 57.2865 23.5857 57.4403 23.5857H59.0248C59.1787 23.5857 59.3038 23.4611 59.3038 23.307C59.3038 23.1532 59.1787 23.0285 59.0248 23.0285H58.5116V17.9251H60.7829V18.411C60.7829 18.5649 60.9075 18.6889 61.0608 18.6889C61.2152 18.6889 61.3404 18.5649 61.3404 18.411V17.6463C61.3401 17.4925 61.2152 17.3673 61.0608 17.3673Z" fill="#807F83"/>
<path d="M16.9945 21.3759L18.7677 18.2158L20.5408 21.3759H16.9945ZM22.7512 23.0286H22.1075L19.0111 17.5098C19.0044 17.4984 18.9958 17.4903 18.9883 17.4806C18.9373 17.4124 18.8597 17.3651 18.7677 17.3651H17.4964C17.3431 17.3651 17.2179 17.4897 17.2179 17.643C17.2179 17.7977 17.3431 17.9223 17.4964 17.9223H18.2939L15.4284 23.0286H14.7989C14.6453 23.0286 14.5201 23.1532 14.5201 23.307C14.5201 23.4611 14.6453 23.5858 14.7989 23.5858H16.3839C16.5372 23.5858 16.6624 23.4611 16.6624 23.307C16.6624 23.1532 16.5372 23.0286 16.3839 23.0286H16.0671L16.6819 21.9328H20.8534L21.4685 23.0286H21.1672C21.0134 23.0286 20.8882 23.1532 20.8882 23.307C20.8882 23.4611 21.0134 23.5858 21.1672 23.5858H22.7512C22.905 23.5858 23.0302 23.4611 23.0302 23.307C23.0302 23.1532 22.905 23.0286 22.7512 23.0286Z" fill="#807F83"/>
<path d="M64.2011 21.3759L65.9744 18.2158L67.7478 21.3759H64.2011ZM69.9591 23.0286H69.314L66.2315 17.5354C66.2312 17.5348 66.2306 17.5337 66.2304 17.5331L66.2173 17.5098C66.2115 17.4995 66.2034 17.4925 66.197 17.4833C66.1461 17.4132 66.0674 17.3651 65.9744 17.3651H64.7037C64.5493 17.3651 64.4242 17.4897 64.4242 17.643C64.4242 17.7977 64.5493 17.9223 64.7037 17.9223H65.5001L62.6355 23.0286H62.0062C61.8521 23.0286 61.7269 23.1532 61.7269 23.307C61.7269 23.4611 61.8521 23.5858 62.0062 23.5858H63.5902C63.7446 23.5858 63.8686 23.4611 63.8686 23.307C63.8686 23.1532 63.7446 23.0286 63.5902 23.0286H63.2736L63.8884 21.9328H68.0605L68.6753 23.0286H68.374C68.2207 23.0286 68.0956 23.1532 68.0956 23.307C68.0956 23.4611 68.2207 23.5858 68.374 23.5858H69.9591C70.1124 23.5858 70.237 23.4611 70.237 23.307C70.237 23.1532 70.1124 23.0286 69.9591 23.0286Z" fill="#807F83"/>
<path d="M52.065 18.8282C52.1198 18.8825 52.1913 18.91 52.2622 18.91C52.3332 18.91 52.4052 18.8825 52.4595 18.8282L53.5402 17.7472C53.6484 17.6382 53.6484 17.4615 53.5396 17.3536C53.4306 17.2437 53.2534 17.2437 53.1454 17.3536L52.8308 17.6679C52.561 17.4426 51.961 17.1625 50.6315 17.1625C47.9819 17.1625 47.586 18.204 47.586 18.8249C47.586 20.021 49.0011 20.3796 50.37 20.7276C51.6077 21.0409 52.776 21.3377 52.776 22.1338C52.776 22.4265 52.776 23.2051 50.3798 23.2051C49.0985 23.2051 48.5057 22.9494 48.2698 22.8026L48.6028 22.4699C48.7113 22.3608 48.7113 22.1847 48.6028 22.076C48.4937 21.9669 48.3171 21.9669 48.2089 22.076L47.1276 23.1564C47.0188 23.266 47.0188 23.4415 47.1276 23.5503C47.1824 23.6051 47.2539 23.6326 47.3248 23.6326C47.396 23.6326 47.4675 23.6051 47.5223 23.5503L47.8698 23.2023C48.1663 23.4229 48.8665 23.7628 50.3798 23.7628C52.3949 23.7628 53.3329 23.2446 53.3329 22.1338C53.3329 20.9043 51.8964 20.5396 50.5064 20.1868C49.2915 19.8783 48.1432 19.5874 48.1432 18.8249C48.1432 17.8632 49.7019 17.7199 50.6315 17.7199C51.7868 17.7199 52.2581 17.9383 52.4344 18.0646L52.0644 18.4343C51.9565 18.5431 51.9565 18.7197 52.065 18.8282Z" fill="#807F83"/>
<path d="M12.9411 18.6892C13.096 18.6892 13.2201 18.5651 13.2201 18.4113V17.6466C13.2201 17.4927 13.096 17.3676 12.9411 17.3676C12.94 17.3676 12.9394 17.3681 12.9383 17.3681H9.05074C9.04963 17.3681 9.04907 17.3676 9.04796 17.3676C9.04685 17.3676 9.04629 17.3681 9.04546 17.3681H8.23512C8.08129 17.3681 7.95667 17.4927 7.95667 17.6466C7.95667 17.8004 8.08129 17.925 8.23512 17.925H8.7695V19.8731C8.7695 19.8742 8.76895 19.8748 8.76895 19.8759C8.76895 19.877 8.7695 19.8776 8.7695 19.8787V23.0288H8.23512C8.08129 23.0288 7.95667 23.1534 7.95667 23.3072C7.95667 23.4611 8.08129 23.5857 8.23512 23.5857H12.9411C13.096 23.5857 13.2201 23.4611 13.2201 23.3072V22.5431C13.2201 22.3887 13.096 22.2646 12.9411 22.2646C12.7872 22.2646 12.6632 22.3887 12.6632 22.5431V23.0288H9.3267V21.5683H10.7535V21.881C10.7535 22.0348 10.8775 22.1595 11.0325 22.1595C11.1858 22.1595 11.3104 22.0348 11.3104 21.881V20.6974C11.3104 20.5441 11.1858 20.4195 11.0325 20.4195C10.8775 20.4195 10.7535 20.5441 10.7535 20.6974V21.0106H9.3267V20.3944V20.1549V19.5974V19.4024V17.925H12.6632V18.4113C12.6632 18.5651 12.7872 18.6892 12.9411 18.6892Z" fill="#807F83"/>
<path d="M45.19 18.6892C45.3449 18.6892 45.469 18.5651 45.469 18.4113V17.6466C45.469 17.4927 45.3449 17.3676 45.19 17.3676C45.1889 17.3676 45.1883 17.3681 45.1872 17.3681H41.2996C41.2985 17.3681 41.298 17.3676 41.2969 17.3676C41.2958 17.3676 41.2952 17.3681 41.2944 17.3681H40.484C40.3302 17.3681 40.2056 17.4927 40.2056 17.6466C40.2056 17.8004 40.3302 17.925 40.484 17.925H41.0184V19.8731C41.0184 19.8742 41.0178 19.8748 41.0178 19.8759C41.0178 19.877 41.0184 19.8776 41.0184 19.8787V23.0288H40.484C40.3302 23.0288 40.2056 23.1534 40.2056 23.3072C40.2056 23.4611 40.3302 23.5857 40.484 23.5857H45.19C45.3449 23.5857 45.469 23.4611 45.469 23.3072V22.5431C45.469 22.3887 45.3449 22.2646 45.19 22.2646C45.0361 22.2646 44.9121 22.3887 44.9121 22.5431V23.0288H41.5756V21.5683H43.0024V21.881C43.0024 22.0348 43.1264 22.1595 43.2814 22.1595C43.4347 22.1595 43.5593 22.0348 43.5593 21.881V20.6974C43.5593 20.5441 43.4347 20.4195 43.2814 20.4195C43.1264 20.4195 43.0024 20.5441 43.0024 20.6974V21.0106H41.5756V20.3944V20.1549V19.5974V19.4024V17.925H44.9121V18.4113C44.9121 18.5651 45.0361 18.6892 45.19 18.6892Z" fill="#807F83"/>
<path d="M83.1928 18.6892C83.3477 18.6892 83.4718 18.5651 83.4718 18.4113V17.6466C83.4718 17.4927 83.3477 17.3676 83.1928 17.3676C83.1917 17.3676 83.1911 17.3681 83.19 17.3681H79.3024C79.3013 17.3681 79.3008 17.3676 79.2997 17.3676C79.2986 17.3676 79.298 17.3681 79.2972 17.3681H78.4868C78.333 17.3681 78.2084 17.4927 78.2084 17.6466C78.2084 17.8004 78.333 17.925 78.4868 17.925H79.0212V19.8731C79.0212 19.8742 79.0207 19.8748 79.0207 19.8759C79.0207 19.877 79.0212 19.8776 79.0212 19.8787V23.0288H78.4868C78.333 23.0288 78.2084 23.1534 78.2084 23.3072C78.2084 23.4611 78.333 23.5857 78.4868 23.5857H83.1928C83.3477 23.5857 83.4718 23.4611 83.4718 23.3072V22.5431C83.4718 22.3887 83.3477 22.2646 83.1928 22.2646C83.039 22.2646 82.9149 22.3887 82.9149 22.5431V23.0288H79.5784V21.5683H81.0052V21.881C81.0052 22.0348 81.1293 22.1595 81.2842 22.1595C81.4375 22.1595 81.5621 22.0348 81.5621 21.881V20.6974C81.5621 20.5441 81.4375 20.4195 81.2842 20.4195C81.1293 20.4195 81.0052 20.5441 81.0052 20.6974V21.0106H79.5784V20.3944V20.1549V19.5974V19.4024V17.925H82.9149V18.4113C82.9149 18.5651 83.039 18.6892 83.1928 18.6892Z" fill="#807F83"/>
<path d="M95.4199 20.5157C95.1612 20.9208 94.9075 21.3403 94.6638 21.7831C94.5664 21.9606 94.3803 22.0705 94.1778 22.0705C93.9753 22.0705 93.7892 21.9606 93.6918 21.7834C93.4479 21.3405 93.1944 20.9211 92.9355 20.5157C90.3857 20.6704 88.4768 21.2894 88.4768 22.031C88.4768 22.8895 91.0291 23.5857 94.1778 23.5857C97.3265 23.5857 99.8788 22.8895 99.8788 22.031C99.8788 21.2894 97.9699 20.6704 95.4199 20.5157Z" fill="#807F83"/>
</svg>
